<svg xmlns="http://www.w3.org/2000/svg" fill="#00FF85" data-name="Layer 1" viewBox="0 0 88 110" x="0px" y="0px"><title>Music_2</title><path d="M44,10.41A33.61,33.61,0,0,1,74,59.1l-.36.69,1.7,13.56A1.57,1.57,0,0,1,74,75.1a2.54,2.54,0,0,1-.39,0L60.22,73.42l-.64.35a33.33,33.33,0,0,1-14.8,3.81H44a33.59,33.59,0,0,1,0-67.18Zm0,4.7A28.89,28.89,0,1,0,58.55,69l.69-.4,10.95,1.37L68.8,58.84l.38-.67A28.9,28.9,0,0,0,44,15.11Z"/><path d="M47.73,26.19l.19.09,9,4.5a1.57,1.57,0,0,1,.7,2.1l-.71,1.41a1.55,1.55,0,0,1-1.92.77L54.83,35l-5.62-2.81V51.81a10.17,10.17,0,1,1-4.71-8.57V28.38a2.36,2.36,0,0,1,3.22-2.19ZM39.05,46.35a5.46,5.46,0,1,0,5.46,5.46A5.46,5.46,0,0,0,39.05,46.35Z"/></svg>